<?xml version="1.0" encoding="UTF-8"?>
<svg width="119.66407px" height="40px" viewBox="0 0 140 42" version="1.1" xmlns="http://www.w3.org/2000/svg" xmlns:xlink="http://www.w3.org/1999/xlink">
    <!-- Generator: Sketch 51.1 (57501) - http://www.bohemiancoding.com/sketch -->
    <title>LTDownload_on_the_App_Store_Badge_LT_RGB_blk_100317</title>
    <desc>Created with Sketch.</desc>
    <defs></defs>
    <g id="Page-1" stroke="none" stroke-width="1" fill="none" fill-rule="evenodd">
        <g id="LTDownload_on_the_App_Store_Badge_LT_RGB_blk_100317" transform="translate(0.000000, 0.000000)" fill-rule="nonzero">
            <g id="Group">
                <g id="Shape">
                    <path d="M128.490565,0 L11.1237933,0 C10.6959767,0 10.2732933,0 9.84660833,0.00233333333 C9.48943333,0.00466666667 9.135105,0.011445 8.7745,0.01715 C7.99109929,0.0263687709 7.20954088,0.0952889699 6.43661667,0.223311667 C5.66477809,0.354121399 4.91711794,0.60073503 4.21892333,0.954811667 C3.52158265,1.31188366 2.88440252,1.77586212 2.33049833,2.329915 C1.77368625,2.88240983 1.30954038,3.52101911 0.955908333,4.22118667 C0.601300282,4.91996064 0.355413915,5.66876134 0.226741667,6.44172667 C0.096846098,7.21371572 0.0269481108,7.9946073 0.017675,8.77739333 C0.00684833333,9.13509333 0.005705,9.49398333 0,9.85173 L0,36.8183667 C0.005705,37.1806167 0.00684833333,37.53155 0.017675,37.8939167 C0.0269509544,38.6766639 0.0968489428,39.4575165 0.226741667,40.2294667 C0.355058612,41.0028839 0.600959518,41.7521144 0.955908333,42.45115 C1.30937981,43.1490534 1.77359095,43.7850772 2.33049833,44.3345 C2.88230229,44.8910164 3.51989427,45.3553105 4.21892333,45.70965 C4.91711263,46.0646743 5.66469218,46.3127558 6.43661667,46.4455833 C7.20967228,46.5725805 7.99115031,46.6415287 8.7745,46.65185 C9.135105,46.6597833 9.48943333,46.6643333 9.84660833,46.6643333 C10.2732817,46.6666667 10.696,46.6666667 11.1237933,46.6666667 L128.490565,46.6666667 C128.909865,46.6666667 129.335932,46.6666667 129.755232,46.6643333 C130.110715,46.6643333 130.475298,46.6597833 130.830782,46.65185 C131.61265,46.6420777 132.392657,46.573125 133.164115,46.4455833 C133.93853,46.3118208 134.688789,46.0638049 135.390348,45.70965 C136.088747,45.3551054 136.72575,44.8908239 137.277082,44.3345 C137.832552,43.7829254 138.297754,43.1473668 138.655615,42.45115 C139.0079,41.7516059 139.25146,41.0024352 139.377898,40.2294667 C139.507999,39.4574106 139.580377,38.6767316 139.594432,37.8939167 C139.598982,37.53155 139.598982,37.1806167 139.598982,36.8183667 C139.608082,36.3945167 139.608082,35.973 139.608082,35.5422667 L139.608082,11.125485 C139.608082,10.69824 139.608082,10.2744133 139.598982,9.85173 C139.598982,9.49398333 139.598982,9.13509333 139.594432,8.77734667 C139.58038,7.99449285 139.508002,7.21377495 139.377898,6.44168 C139.251108,5.66916186 139.007562,4.92042049 138.655615,4.22114 C137.93546,2.81772876 136.793502,1.67536296 135.390348,0.954706667 C134.688787,0.601495277 133.938447,0.354947145 133.164115,0.223206667 C132.392791,0.0946199137 131.612703,0.0256757257 130.830782,0.0169866667 C130.475298,0.0112933333 130.110715,0.00445666667 129.755232,0.00218166667 C129.335932,-0.000151666667 128.909865,-0.000151666667 128.490565,-0.000151666667 L128.490565,0 Z" fill="#A6A6A6"></path>
                    <path d="M9.85230167,45.6458333 C9.49684167,45.6458333 9.14996833,45.6412833 8.79729667,45.63335 C8.06670873,45.6238309 7.33782837,45.5602292 6.61663333,45.4430667 C5.94415535,45.3272495 5.29270495,45.1118086 4.68377,44.80385 C4.08041865,44.4984431 3.53011373,44.097985 3.05393667,43.6178167 C2.57086705,43.1433045 2.16868952,42.5929513 1.86334167,41.9885667 C1.55462914,41.380254 1.34098169,40.7282162 1.22984167,40.0551667 C1.10982008,39.3319674 1.04488344,38.6006988 1.03559167,37.8676667 C1.028195,37.6216167 1.01851167,36.8023833 1.01851167,36.8023833 L1.01851167,9.85173 C1.01851167,9.85173 1.028825,9.045085 1.03565,8.8081 C1.0445468,8.07622906 1.10910584,7.34609528 1.22876833,6.62401833 C1.34011351,5.94912509 1.55392635,5.29520701 1.862805,4.68490167 C2.16703063,4.08093449 2.56697535,3.53017034 3.047135,3.05396 C3.52675497,2.57322499 4.07882021,2.17070481 4.68319833,1.86107833 C5.29073378,1.5541092 5.94095302,1.34018797 6.61207167,1.22648167 C7.33563522,1.10814216 8.06704598,1.0441621 8.80016667,1.03507833 L9.85287333,1.02083333 L129.749515,1.02083333 L130.814798,1.03565 C131.54125,1.0442824 132.266017,1.10769167 132.982932,1.22533833 C133.660844,1.34047091 134.31784,1.55588479 134.932315,1.86449667 C136.143103,2.48848372 137.128298,3.47569011 137.749815,4.68774833 C138.053764,5.29384049 138.264278,5.94242455 138.374215,6.61148833 C138.495302,7.33948994 138.563071,8.07536139 138.576982,8.81323333 C138.580365,9.14363333 138.580365,9.49853333 138.580365,9.85173 C138.589582,10.28923 138.589582,10.7056483 138.589582,11.125485 L138.589582,35.5422667 C138.589582,35.9661167 138.589582,36.3797 138.580365,36.7966667 C138.580365,37.1760667 138.580365,37.5236167 138.575815,37.8813167 C138.562206,38.6060216 138.495567,39.3287583 138.376432,40.0437333 C138.26757,40.721638 138.055085,41.3787653 137.746432,41.9920667 C137.438925,42.5898913 137.039057,43.1354772 136.561565,43.6087167 C136.08496,44.0914654 135.533683,44.4942665 134.928932,44.8016333 C134.316159,45.1119593 133.66013,45.328197 132.982932,45.4430667 C132.261791,45.5608545 131.532841,45.6244602 130.802198,45.63335 C130.460482,45.6412833 130.102665,45.6458333 129.755232,45.6458333 L128.490565,45.6481667 L9.85230167,45.6458333 Z" fill="#000000"></path>
                </g>
                <g id="_Group_" transform="translate(10.500000, 9.333333)" fill="#FFFFFF">
                    <g id="_Group_2">
                        <g id="_Group_3">
                            <path d="M18.3970267,14.3507933 C18.4225265,12.3715773 19.4601434,10.5433838 21.1463467,9.50672333 C20.0777647,7.98059823 18.352124,7.04769141 16.4899933,6.98943 C14.53088,6.78379333 12.631605,8.16173167 11.6332767,8.16173167 C10.6156283,8.16173167 9.078545,7.00984667 7.42336,7.04390167 C5.24556814,7.11426149 3.26449337,8.32244639 2.20495333,10.2264167 C-0.05138,14.1329067 1.63164167,19.8741317 3.79302,23.0318433 C4.87440333,24.578085 6.13823,26.3052767 7.79192167,26.2440267 C9.41015833,26.1769083 10.0145383,25.2121333 11.9678883,25.2121333 C13.9031083,25.2121333 14.4701433,26.2440267 16.1573883,26.2050833 C17.8938317,26.1768967 18.9878733,24.65197 20.0313167,23.0910867 C20.8082888,21.989333 21.4061676,20.7716553 21.8028067,19.4831583 C19.7404393,18.6108782 18.3994338,16.5900401 18.3970267,14.3507933 Z" id="_Path_"></path>
                            <path d="M15.210125,4.912705 C16.156906,3.77612889 16.6233491,2.31525286 16.5103983,0.840315 C15.0639275,0.992238902 13.7277936,1.68355795 12.7682217,2.77652667 C11.8206885,3.8548872 11.3406704,5.26567146 11.4338933,6.69814833 C12.8997596,6.71324123 14.2915688,6.05517875 15.210125,4.912705 Z" id="_Path_2"></path>
                        </g>
                    </g>
                    <g id="Group" transform="translate(29.166667, 10.500000)">
                        <path d="M9.68598167,11.8295917 L4.16368167,11.8295917 L2.83750833,15.74545 L0.498481667,15.74545 L5.729115,1.25778333 L8.15928167,1.25778333 L13.389915,15.74545 L11.011,15.74545 L9.68598167,11.8295917 Z M4.73561667,10.0226233 L9.11295,10.0226233 L6.95507167,3.667475 L6.894685,3.667475 L4.73561667,10.0226233 Z" id="Shape"></path>
                        <path d="M24.686305,10.464685 C24.686305,13.7470783 22.9294683,15.8559567 20.278265,15.8559567 C18.9078811,15.9276421 17.6170545,15.2098691 16.9548633,14.0079567 L16.9046967,14.0079567 L16.9046967,19.2397333 L14.7365633,19.2397333 L14.7365633,5.18277667 L16.8352333,5.18277667 L16.8352333,6.93961333 L16.87511,6.93961333 C17.5667197,5.7452359 18.8589383,5.02777198 20.2383883,5.07225833 C22.9191667,5.07227 24.686305,7.19140333 24.686305,10.464685 Z M22.457785,10.464685 C22.457785,8.326185 21.3526367,6.92024667 19.6664417,6.92024667 C18.0098683,6.92024667 16.8956083,8.355795 16.8956083,10.464685 C16.8956083,12.5929417 18.0098683,14.018235 19.6664417,14.018235 C21.3526483,14.018235 22.457785,12.6225633 22.457785,10.464685 Z" id="Shape"></path>
                        <path d="M36.3119517,10.464685 C36.3119517,13.7470783 34.555115,15.8559567 31.9039117,15.8559567 C30.5335278,15.9276421 29.2427011,15.2098691 28.58051,14.0079567 L28.5303433,14.0079567 L28.5303433,19.2397333 L26.36221,19.2397333 L26.36221,5.18277667 L28.4608333,5.18277667 L28.4608333,6.93961333 L28.50071,6.93961333 C29.1923247,5.74523663 30.4845483,5.02777692 31.864,5.07227 C34.54486,5.07227 36.3119517,7.19140333 36.3119517,10.464685 Z M34.0834317,10.464685 C34.0834317,8.326185 32.9782833,6.92024667 31.2920883,6.92024667 C29.635515,6.92024667 28.521255,8.355795 28.521255,10.464685 C28.521255,12.5929417 29.635515,14.018235 31.2920883,14.018235 C32.978295,14.018235 34.0834433,12.6225633 34.0834433,10.464685 L34.0834317,10.464685 Z" id="Shape"></path>
                        <path d="M43.9955483,11.7088183 C44.1561983,13.14551 45.5518817,14.0888183 47.45909,14.0888183 C49.2865683,14.0888183 50.6013433,13.1454633 50.6013433,11.8500433 C50.6013433,10.7255283 49.8083717,10.05221 47.9307733,9.59077 L46.053175,9.13845333 C43.39286,8.49587667 42.1578267,7.25173167 42.1578267,5.23285 C42.1578267,2.73317333 44.336215,1.01621333 47.4294683,1.01621333 C50.4908017,1.01621333 52.58946,2.73317333 52.6601017,5.23285 L50.471435,5.23285 C50.3404183,3.78704667 49.1452617,2.91433333 47.39868,2.91433333 C45.6520983,2.91433333 44.4569533,3.79731333 44.4569533,5.08246667 C44.4569533,6.10671833 45.2203033,6.70941833 47.0876467,7.1708 L48.6838333,7.56273 C51.656325,8.26569333 52.8913583,9.45973 52.8913583,11.57884 C52.8913583,14.2892867 50.7323367,15.98688 47.2984167,15.98688 C44.0855217,15.98688 41.9162567,14.3291633 41.7761167,11.7087133 L43.9955483,11.7088183 Z" id="Shape"></path>
                        <path d="M57.5705783,2.6831 L57.5705783,5.18277667 L59.579205,5.18277667 L59.579205,6.89973667 L57.5705783,6.89973667 L57.5705783,12.722815 C57.5705783,13.6274367 57.9727633,14.0489883 58.8557317,14.0489883 C59.0941883,14.0448303 59.3322592,14.0280847 59.56895,13.9988217 L59.56895,15.7055267 C59.1719664,15.7797028 58.7684659,15.8132969 58.3646817,15.80579 C56.2261817,15.80579 55.39219,15.0025633 55.39219,12.95406 L55.39219,6.89973667 L53.85639,6.89973667 L53.85639,5.18277667 L55.3921667,5.18277667 L55.3921667,2.6831 L57.5705783,2.6831 Z" id="Shape"></path>
                        <path d="M60.7425,10.464685 C60.7425,7.14128333 62.6998517,5.05290333 65.7521083,5.05290333 C68.8146083,5.05290333 70.7628483,7.14123667 70.7628483,10.464685 C70.7628483,13.79721 68.8248633,15.8764667 65.7521083,15.8764667 C62.6804383,15.8764667 60.7425,13.7971983 60.7425,10.464685 Z M68.553695,10.464685 C68.553695,8.18490167 67.5089333,6.83936167 65.7520967,6.83936167 C63.99526,6.83936167 62.9516417,8.19515667 62.9516417,10.464685 C62.9516417,12.75358 63.99526,14.0888767 65.7520967,14.0888767 C67.5089333,14.0888767 68.5536483,12.75358 68.5536483,10.464685 L68.553695,10.464685 Z" id="Shape"></path>
                        <path d="M72.5504033,5.18277667 L74.6182733,5.18277667 L74.6182733,6.98061 L74.66844,6.98061 C74.9568121,5.82326314 76.0172613,5.02673682 77.209125,5.07224667 C77.458983,5.07137427 77.7081517,5.0985092 77.951965,5.15314333 L77.951965,7.18113667 C77.6365345,7.08475054 77.3074862,7.04049651 76.9777983,7.05012 C76.3403879,7.02426135 75.7235161,7.27829052 75.289155,7.74550697 C74.854794,8.21272342 74.6463393,8.8464492 74.718525,9.48028667 L74.718525,15.7454267 L72.5503917,15.7454267 L72.5504033,5.18277667 Z" id="Shape"></path>
                        <path d="M87.94835,12.6430617 C87.6566833,14.5605367 85.7893283,15.876455 83.40017,15.876455 C80.327415,15.876455 78.420195,13.8176967 78.420195,10.514805 C78.420195,7.20165833 80.33767,5.05289167 83.30903,5.05289167 C86.23139,5.05289167 88.0691233,7.060375 88.0691233,10.263015 L88.0691233,11.005855 L80.6088383,11.005855 L80.6088383,11.1368717 C80.5391853,11.9232419 80.8107202,12.7016394 81.3543732,13.2740649 C81.8980263,13.8464905 82.6613987,14.1577722 83.4503133,14.12873 C84.5024626,14.2273129 85.4944336,13.6231406 85.8896033,12.64305 L87.94835,12.6430617 Z M80.6190728,9.490565 L85.8998467,9.49055333 C85.939193,8.78394707 85.6819793,8.09296026 85.1901751,7.58407014 C84.6983708,7.07518001 84.0165676,6.79452715 83.30903,6.80972833 C82.5958954,6.8054726 81.9106058,7.08625707 81.4054798,7.58967212 C80.9003537,8.09308717 80.6172457,8.77742007 80.6190728,9.490565 Z" id="Shape"></path>
                    </g>
                </g>
            </g>
            <g id="_Group_4" transform="translate(40.833333, 9.333333)" fill="#FFFFFF">
                <g id="Group">
                    <path d="M4.65187333,5.966065 L1.998395,5.966065 L1.35696167,7.814065 L0.247263333,7.8141 L2.761745,0.852833333 L3.92385,0.852833333 L6.4372,7.8141 L5.28876833,7.8141 L4.65187333,5.966065 Z M2.27410167,5.05916833 L4.37733333,5.05916833 L3.36900667,2.11633333 L3.28696667,2.11633333 L2.27410167,5.05916833 Z" id="Shape"></path>
                    <path d="M8.78875667,1.252685 L8.78875667,2.58455167 L9.926945,2.58455167 L9.926945,3.45784833 L8.78875667,3.45784833 L8.78875667,6.15918333 C8.78875667,6.70947667 9.01548667,6.95044 9.53159667,6.95044 C9.66372816,6.95001713 9.79572703,6.94202794 9.926945,6.92651167 L9.926945,7.79011333 C9.74076357,7.82347737 9.55211611,7.84119868 9.36297833,7.84309167 C8.209985,7.84309167 7.75083167,7.43748833 7.75083167,6.424635 L7.75083167,3.45780167 L6.91685167,3.45780167 L6.91685167,2.584505 L7.75083167,2.584505 L7.75083167,1.252685 L8.78875667,1.252685 Z" id="Shape"></path>
                    <path d="M13.1375533,2.45922833 C14.3190367,2.45922833 15.0914867,3.00895 15.1928933,3.935225 L14.1982633,3.935225 C14.1025967,3.54956 13.7254483,3.303475 13.1375533,3.303475 C12.5587817,3.303475 12.1190533,3.57805 12.1190533,3.98820333 C12.1190533,4.30203667 12.3845167,4.49976333 12.9541767,4.63020833 L13.8268433,4.83243833 C14.826035,5.06429 15.2942883,5.49381 15.2942883,6.26571167 C15.2942883,7.25464833 14.3726217,7.91544833 13.1181867,7.91544833 C11.8683483,7.91544833 11.053735,7.35091 10.9614517,6.420085 L11.9993767,6.420085 C12.1834557,6.8760606 12.6555651,7.14694189 13.142115,7.07575167 C13.78811,7.07575167 14.2472633,6.78641833 14.2472633,6.36652333 C14.2472633,6.053215 14.0011667,5.85041333 13.4748017,5.72509 L12.5587817,5.512605 C11.55959,5.27619167 11.09703,4.82787667 11.09703,4.04629167 C11.09703,3.11490667 11.9503767,2.45922833 13.1375533,2.45922833 Z" id="Shape"></path>
                    <path d="M16.555525,1.00716 C16.5391645,0.732393798 16.692101,0.475454934 16.9414264,0.358831785 C17.1907519,0.242208637 17.4859974,0.289508231 17.686413,0.478181816 C17.8868286,0.6668554 17.9518459,0.958711397 17.8504696,1.21461566 C17.7490934,1.47051993 17.5018444,1.63867196 17.2265917,1.63891 C17.0528541,1.64776919 16.8830223,1.58536342 16.7563571,1.46611931 C16.6296919,1.3468752 16.5571586,1.18111564 16.555525,1.00716 Z M16.7093383,2.56062333 L17.7426667,2.56062333 L17.7426667,7.81404167 L16.7093033,7.81404167 L16.7093383,2.56062333 Z" id="Shape"></path>
                    <path d="M21.334985,2.45922833 C22.5164683,2.45922833 23.2889183,3.00895 23.390325,3.935225 L22.395695,3.935225 C22.3000283,3.54956 21.92288,3.303475 21.334985,3.303475 C20.7562133,3.303475 20.316485,3.57805 20.316485,3.98820333 C20.316485,4.30203667 20.5819483,4.49976333 21.1516083,4.63020833 L22.024275,4.83243833 C23.0234667,5.06429 23.49172,5.49381 23.49172,6.26571167 C23.49172,7.25464833 22.5700533,7.91544833 21.3156183,7.91544833 C20.06578,7.91544833 19.2511667,7.35091 19.1588833,6.420085 L20.1968083,6.420085 C20.3808873,6.8760606 20.8529968,7.14694189 21.3395467,7.07575167 C21.9855417,7.07575167 22.444695,6.78641833 22.444695,6.36652333 C22.444695,6.053215 22.1985983,5.85041333 21.6722333,5.72509 L20.7561667,5.51261667 C19.756975,5.27620333 19.294415,4.82788833 19.294415,4.04630333 C19.2944617,3.11490667 20.1478083,2.45922833 21.334985,2.45922833 Z" id="Shape"></path>
                    <path d="M24.7529567,1.00716 C24.7365961,0.732393798 24.8895327,0.475454934 25.1388581,0.358831785 C25.3881835,0.242208637 25.6834291,0.289508231 25.8838447,0.478181816 C26.0842603,0.6668554 26.1492775,0.958711397 26.0479013,1.21461566 C25.9465251,1.47051993 25.6992761,1.63867196 25.4240233,1.63891 C25.2502857,1.64776919 25.080454,1.58536342 24.9537888,1.46611931 C24.8271235,1.3468752 24.7545902,1.18111564 24.7529567,1.00716 Z M24.9079017,2.56062333 L25.9401333,2.56062333 L25.9401333,7.81404167 L24.9079017,7.81404167 L24.9079017,2.56062333 Z" id="Shape"></path>
                    <path d="M31.389505,9.97078833 C31.0885587,10.0080991 30.7856513,9.91856997 30.5533452,9.72364788 C30.321039,9.52872579 30.1802623,9.24597107 30.1647383,8.94311833 C30.2001462,8.4189058 30.5456154,7.96668571 31.0420717,7.79468667 L31.0420717,6.97950167 L30.9600433,6.97950167 C30.6876596,7.60060497 30.0483161,7.97765007 29.3729683,7.91546 C28.8583683,7.95195725 28.3548933,7.75361738 28.0034503,7.37594947 C27.6520072,6.99828156 27.4903513,6.48185819 27.563725,5.97121 L27.563725,2.56062333 L28.60165,2.56062333 L28.60165,5.70116167 C28.60165,6.54995833 28.9434833,6.95556167 29.705655,6.95556167 C30.0635597,6.98952531 30.417689,6.86023052 30.6695145,6.60365061 C30.92134,6.3470707 31.0439894,5.99058531 31.0033383,5.63337833 L31.0033383,2.56062333 L32.0412633,2.56062333 L32.0412633,7.81404167 L31.9398683,7.84309167 C31.4237583,8.02139333 31.0762667,8.35920167 31.0762667,8.73062167 C31.0803196,8.86827659 31.1424902,8.99777341 31.2473719,9.08702108 C31.3522535,9.17626875 31.4900306,9.21691483 31.62656,9.19888667 C31.7366372,9.20348449 31.8467954,9.19196832 31.9535417,9.16470333 L31.9535417,9.87905333 C31.7726829,9.94371791 31.5815343,9.97480633 31.389505,9.97078833 Z" id="Shape"></path>
                    <path d="M35.61355,2.45922833 C36.7950333,2.45922833 37.5674833,3.00895 37.66889,3.935225 L36.67426,3.935225 C36.5785933,3.54956 36.201445,3.303475 35.61355,3.303475 C35.0347783,3.303475 34.59442,3.57805 34.59442,3.98820333 C34.59442,4.30203667 34.8598833,4.49976333 35.430115,4.63020833 L36.3027817,4.83243833 C37.3019733,5.06429 37.7702267,5.49381 37.7702267,6.26571167 C37.7702267,7.25464833 36.84856,7.91544833 35.594125,7.91544833 C34.343715,7.91544833 33.529125,7.35091 33.4368183,6.420085 L34.4747433,6.420085 C34.6589706,6.87622077 35.1313457,7.1471134 35.6180767,7.07575167 C36.2640717,7.07575167 36.723225,6.78641833 36.723225,6.36652333 C36.723225,6.053215 36.4771283,5.85041333 35.9507633,5.72509 L35.0347433,5.512605 C34.0349917,5.27619167 33.57242,4.82787667 33.57242,4.04629167 C33.572455,3.11490667 34.4258017,2.45922833 35.61355,2.45922833 Z" id="Shape"></path>
                    <polygon id="Shape" points="42.4187283 2.56062333 43.643495 2.56062333 41.4821983 4.81306 43.788185 7.81404167 42.5144183 7.81404167 40.7108333 5.49837167 40.2516917 5.93245333 40.2516917 7.81404167 39.21491 7.81404167 39.21491 0.509833333 40.2516917 0.509833333 40.2516917 4.75039833 40.33372 4.75039833"></polygon>
                    <path d="M44.7498333,1.00716 C44.7334728,0.732393798 44.8864093,0.475454934 45.1357348,0.358831785 C45.3850602,0.242208637 45.6803057,0.289508231 45.8807213,0.478181816 C46.0811369,0.6668554 46.1461542,0.958711397 46.044778,1.21461566 C45.9434017,1.47051993 45.6961527,1.63867196 45.4209,1.63891 C45.2471624,1.64776919 45.0773306,1.58536342 44.9506654,1.46611931 C44.8240002,1.3468752 44.7514669,1.18111564 44.7498333,1.00716 Z M44.9036467,2.56062333 L45.93701,2.56062333 L45.93701,7.81404167 L44.9036467,7.81404167 L44.9036467,2.56062333 Z" id="Shape"></path>
                    <path d="M49.013125,1.252685 L49.013125,2.58455167 L50.1513133,2.58455167 L50.1513133,3.45784833 L49.013125,3.45784833 L49.013125,6.15918333 C49.013125,6.70947667 49.239855,6.95044 49.755965,6.95044 C49.8880965,6.95001713 50.0200954,6.94202794 50.1513133,6.92651167 L50.1513133,7.79011333 C49.9651244,7.8234225 49.7764816,7.84114338 49.5873467,7.84309167 C48.4343533,7.84309167 47.9752,7.43748833 47.9752,6.424635 L47.9752,3.45780167 L47.14122,3.45780167 L47.14122,2.584505 L47.9752,2.584505 L47.9752,1.252685 L49.013125,1.252685 Z" id="Shape"></path>
                    <path d="M55.906025,6.395585 C55.6152999,7.38652773 54.6563487,8.02678688 53.62966,7.91543667 C52.9291489,7.9339291 52.2559187,7.64356814 51.7885946,7.12139393 C51.3212705,6.59921972 51.107097,5.89802211 51.2029,5.20384667 C51.1096453,4.50774389 51.3230179,3.80542602 51.7877393,3.27884311 C52.2524607,2.75226021 52.9228023,2.45322788 53.6250983,2.45921667 C55.08685,2.45921667 55.9686867,3.45788333 55.9686867,5.10755 L55.9686867,5.46933333 L52.25906,5.46933333 L52.25906,5.52743333 C52.2262324,5.9172635 52.3593709,6.30285571 52.6257326,6.58938082 C52.8920943,6.87590592 53.2669642,7.03677791 53.65815,7.03243333 C54.1653838,7.09332713 54.6591413,6.84172188 54.9079883,6.39555 L55.906025,6.395585 Z M52.259025,4.70255333 L54.9125033,4.70255333 C54.9389317,4.34602051 54.8135682,3.99490592 54.5673064,3.73573561 C54.3210446,3.4765653 53.9767871,3.33344226 53.61937,3.34163667 C53.2571127,3.33708857 52.908371,3.47902935 52.6522533,3.73526125 C52.3961356,3.99149315 52.2543504,4.34029807 52.25906,4.70255333 L52.259025,4.70255333 Z" id="Shape"></path>
                    <path d="M60.0736733,1.00716 C60.0573128,0.732393798 60.2102493,0.475454934 60.4595748,0.358831785 C60.7089002,0.242208637 61.0041457,0.289508231 61.2045613,0.478181816 C61.4049769,0.6668554 61.4699942,0.958711397 61.368618,1.21461566 C61.2672417,1.47051993 61.0199927,1.63867196 60.74474,1.63891 C60.5710024,1.64776919 60.4011706,1.58536342 60.2745054,1.46611931 C60.1478402,1.3468752 60.0753069,1.18111564 60.0736733,1.00716 Z M60.2274867,2.56062333 L61.26085,2.56062333 L61.26085,7.81404167 L60.2274867,7.81404167 L60.2274867,2.56062333 Z" id="Shape"></path>
                    <path d="M64.8542767,2.45922833 C66.03576,2.45922833 66.80821,3.00895 66.9096167,3.935225 L65.9149867,3.935225 C65.81932,3.54956 65.4421717,3.303475 64.8542767,3.303475 C64.275505,3.303475 63.8357767,3.57805 63.8357767,3.98820333 C63.8357767,4.30203667 64.10124,4.49976333 64.6709,4.63020833 L65.5435667,4.83243833 C66.5427583,5.06429 67.0110117,5.49381 67.0110117,6.26571167 C67.0110117,7.25464833 66.089345,7.91544833 64.83491,7.91544833 C63.5850717,7.91544833 62.7704583,7.35091 62.678175,6.420085 L63.7161,6.420085 C63.900179,6.8760606 64.3722885,7.14694189 64.8588383,7.07575167 C65.5048333,7.07575167 65.9639867,6.78641833 65.9639867,6.36652333 C65.9639867,6.053215 65.71789,5.85041333 65.191525,5.72509 L64.275505,5.512605 C63.2763133,5.27619167 62.8137533,4.82787667 62.8137533,4.04629167 C62.8137417,3.11490667 63.6671,2.45922833 64.8542767,2.45922833 Z M64.2891783,1.84171167 L62.939065,0.172608333 L64.010065,0.172608333 L64.8155667,1.22875667 L64.893045,1.22875667 L65.6985467,0.172608333 L66.76495,0.172608333 L65.4182667,1.84171167 L64.2891783,1.84171167 Z" id="Shape"></path>
                </g>
            </g>
        </g>
    </g>
</svg>